<svg width="200" height="85" viewBox="0 0 200 85" fill="none" xmlns="http://www.w3.org/2000/svg">
<path d="M194.232 5.28586V54.2059C194.191 58.7289 192.193 63.0522 188.678 66.2273C185.163 69.4024 180.417 71.1701 175.482 71.1426H118.435C111.627 71.1238 105.054 73.4297 100 77.6108C94.9456 73.4297 88.3733 71.1238 81.5645 71.1426H24.3681C19.4527 71.1518 14.7339 69.3738 11.247 66.1987C7.76 63.0237 5.78948 58.7107 5.76764 54.2059V5.28586H194.232ZM103.03 82.2711C105.05 80.4138 107.452 78.9414 110.096 77.9386C112.74 76.9358 115.574 76.4226 118.435 76.4285H175.489C181.953 76.4541 188.164 74.1287 192.759 69.9625C197.354 65.7963 199.958 60.1296 200 54.2059V0H0V54.2059C0.0218469 60.1126 2.60003 65.77 7.16865 69.9364C11.7373 74.1028 17.923 76.4377 24.3681 76.4285H81.572C84.4307 76.4204 87.2629 76.9307 89.9056 77.9299C92.5482 78.9291 94.9491 80.3975 96.9699 82.2505L99.97 85L103.03 82.2711Z" fill="white"/>
<path d="M172.287 27.5566C172.311 28.144 172.143 28.7246 171.804 29.2237C171.465 29.7229 170.971 30.1179 170.386 30.3581C169.801 30.5982 169.15 30.6725 168.518 30.5715C167.887 30.4704 167.302 30.1986 166.84 29.7909C166.378 29.3833 166.059 28.8583 165.925 28.2835C165.791 27.7087 165.847 27.1102 166.087 26.565C166.327 26.0197 166.738 25.5525 167.27 25.2234C167.801 24.8942 168.428 24.7182 169.069 24.7178C169.487 24.701 169.903 24.7621 170.294 24.8974C170.685 25.0327 171.041 25.2394 171.342 25.5049C171.643 25.7704 171.882 26.0892 172.044 26.4418C172.207 26.7945 172.289 27.1738 172.287 27.5566ZM166.287 50.6728H171.859V32.5538H166.287V50.6728ZM156.326 39.7436L163.587 50.6728H157.549L152.674 43.4348L150.049 46.4867V50.6934H144.521V24.649H150.049V36.6573C150.049 38.8844 149.771 41.1184 149.771 41.1184H149.891C149.891 41.1184 151.189 39.1387 152.284 37.7365L156.521 32.5606H162.994L156.326 39.7436ZM138.911 39.0563C138.911 34.5609 136.518 32.1207 132.716 32.1207C131.471 32.1054 130.248 32.4221 129.196 33.0323C128.144 33.6425 127.308 34.5199 126.791 35.5576H126.671L126.948 32.5744H121.421V50.6934H126.948V39.9223C126.948 37.8602 128.283 36.3961 130.361 36.3961C132.438 36.3961 133.361 37.654 133.361 40.0598V50.6659H138.896L138.911 39.0563ZM116.118 27.5566C116.142 28.144 115.974 28.7246 115.635 29.2237C115.296 29.7229 114.803 30.1179 114.217 30.3581C113.632 30.5982 112.981 30.6725 112.349 30.5715C111.718 30.4704 111.133 30.1986 110.671 29.7909C110.209 29.3833 109.89 28.8583 109.756 28.2835C109.622 27.7087 109.678 27.1102 109.918 26.565C110.158 26.0197 110.57 25.5525 111.101 25.2234C111.632 24.8942 112.259 24.7182 112.9 24.7178C113.318 24.701 113.734 24.7621 114.125 24.8974C114.516 25.0327 114.872 25.2394 115.173 25.5049C115.474 25.7704 115.713 26.0892 115.876 26.4418C116.038 26.7945 116.12 27.1738 116.118 27.5566ZM110.118 50.6728H115.69V32.5538H110.118V50.6728ZM100.548 45.6413C100.548 44.2047 98.35 43.8816 95.8 43.2355C92.7999 42.5481 89.0948 41.1734 89.0948 37.7022C89.0948 34.2309 92.6649 32.1276 96.9025 32.1276C100.825 32.1276 104.403 33.8529 105.963 36.2518L101.215 38.6988C100.988 37.8618 100.457 37.1208 99.7078 36.5984C98.9591 36.0759 98.0382 35.8033 97.0975 35.8256C95.6875 35.8256 94.5099 36.403 94.5099 37.4409C94.5099 38.8157 97.0975 38.9532 100.038 39.8124C103.135 40.7128 105.963 42.0051 105.963 45.3113C105.963 48.9406 102.273 51.099 97.9975 51.099C93.3699 51.099 89.7473 49.2981 88.1123 46.4249L92.9349 43.9435C93.2156 44.9496 93.8617 45.8381 94.7669 46.4628C95.6721 47.0875 96.7824 47.4111 97.915 47.3803C99.4151 47.3803 100.54 46.7685 100.54 45.6206L100.548 45.6413ZM82.6446 24.8277H77.0945V45.6756C77.0945 47.5453 77.532 48.9063 78.407 49.7586C79.2821 50.6109 80.6746 51.0371 82.5846 51.0371C83.2579 51.0342 83.929 50.9674 84.5872 50.8378C85.168 50.7403 85.7261 50.552 86.2372 50.281L86.7097 46.8441C86.3327 46.969 85.9468 47.0701 85.5547 47.1466C85.1738 47.2105 84.7869 47.2404 84.3997 47.2359C84.1519 47.2686 83.899 47.2392 83.6679 47.1509C83.4369 47.0625 83.2362 46.9186 83.0871 46.7342C82.7572 46.1874 82.6135 45.5625 82.6746 44.9401L82.6446 24.8277ZM64.1267 35.8256C62.0866 35.8256 60.4366 37.1591 60.0091 39.6337H67.8168C67.8168 37.4409 66.3167 35.8256 64.1267 35.8256ZM72.6769 43.0155H59.9266C60.1591 45.9643 61.9666 47.4009 64.2842 47.4009C65.2076 47.4201 66.1063 47.1264 66.808 46.5759C67.5098 46.0254 67.9651 45.2569 68.0868 44.4177L72.7519 46.8235C71.8946 48.176 70.6544 49.2911 69.1626 50.051C67.6708 50.8108 65.9827 51.1871 64.2767 51.1402C58.749 51.1402 54.7064 47.614 54.7064 41.6476C54.7064 35.6813 58.824 32.1551 64.1567 32.1551C69.4893 32.1551 72.9844 35.5919 72.9844 40.5341C72.9922 41.3681 72.8991 42.2003 72.7069 43.0155H72.6769ZM44.8287 50.6728H50.5963V25.7969H44.8287V35.6469H34.0059V25.7969H28.2383V50.6728H34.0059V40.3623H44.8287V50.6728Z" fill="white"/>
</svg>
